<svg xmlns="http://www.w3.org/2000/svg" xmlns:xlink="http://www.w3.org/1999/xlink" width="368" zoomAndPan="magnify" viewBox="0 0 276 211.499994" height="282" preserveAspectRatio="xMidYMid meet" version="1.0"><defs><g/><clipPath id="904741750f"><path d="M 0.324219 0 L 275.671875 0 L 275.671875 211 L 0.324219 211 Z M 0.324219 0 " clip-rule="nonzero"/></clipPath><clipPath id="357525abc2"><path d="M 32.539062 0 L 243.238281 0 L 243.238281 210.703125 L 32.539062 210.703125 Z M 32.539062 0 " clip-rule="nonzero"/></clipPath><clipPath id="60b32e321f"><path d="M 0.539062 0 L 211.238281 0 L 211.238281 210.703125 L 0.539062 210.703125 Z M 0.539062 0 " clip-rule="nonzero"/></clipPath><clipPath id="b23cee824b"><rect x="0" width="212" y="0" height="211"/></clipPath><clipPath id="815384a4e7"><rect x="0" width="211" y="0" height="128"/></clipPath></defs><g clip-path="url(#904741750f)"><path fill="#ffffff" d="M 0.324219 0 L 275.675781 0 L 275.675781 211 L 0.324219 211 Z M 0.324219 0 " fill-opacity="1" fill-rule="nonzero"/></g><g clip-path="url(#357525abc2)"><g transform="matrix(1, 0, 0, 1, 32, 0)"><g clip-path="url(#b23cee824b)"><g clip-path="url(#60b32e321f)"><path fill="#edf5ff" d="M 0.539062 0 L 211.238281 0 L 211.238281 210.703125 L 0.539062 210.703125 Z M 0.539062 0 " fill-opacity="1" fill-rule="nonzero"/></g></g></g></g><g transform="matrix(1, 0, 0, 1, 32, 41)"><g clip-path="url(#815384a4e7)"><g fill="#154273" fill-opacity="1"><g transform="translate(0.537152, 96.167089)"><g><path d="M 61.0625 -69.03125 C 62.039062 -69.03125 62.789062 -68.820312 63.3125 -68.40625 C 63.84375 -67.988281 64.109375 -67.1875 64.109375 -66 L 64.109375 -3.046875 C 64.109375 -1.859375 63.84375 -1.050781 63.3125 -0.625 C 62.789062 -0.207031 62.039062 0 61.0625 0 L 50.671875 0 C 49.765625 0 49.03125 -0.207031 48.46875 -0.625 C 47.914062 -1.050781 47.640625 -1.859375 47.640625 -3.046875 L 47.640625 -26.75 L 24.234375 -26.75 L 24.234375 -3.046875 C 24.234375 -1.859375 23.96875 -1.050781 23.4375 -0.625 C 22.914062 -0.207031 22.164062 0 21.1875 0 L 10.8125 0 C 9.894531 0 9.15625 -0.207031 8.59375 -0.625 C 8.039062 -1.050781 7.765625 -1.859375 7.765625 -3.046875 L 7.765625 -66 C 7.765625 -67.1875 8.039062 -67.988281 8.59375 -68.40625 C 9.15625 -68.820312 9.894531 -69.03125 10.8125 -69.03125 L 21.1875 -69.03125 C 22.164062 -69.03125 22.914062 -68.820312 23.4375 -68.40625 C 23.96875 -67.988281 24.234375 -67.1875 24.234375 -66 L 24.234375 -42.28125 L 47.640625 -42.28125 L 47.640625 -66 C 47.640625 -67.1875 47.914062 -67.988281 48.46875 -68.40625 C 49.03125 -68.820312 49.765625 -69.03125 50.671875 -69.03125 Z M 61.0625 -69.03125 "/></g></g></g><g fill="#154273" fill-opacity="1"><g transform="translate(72.40884, 96.167089)"><g><path d="M 34.421875 -69.03125 C 43.441406 -69.03125 50.273438 -66.789062 54.921875 -62.3125 C 59.578125 -57.84375 61.90625 -51.972656 61.90625 -44.703125 C 61.90625 -37.421875 59.539062 -31.554688 54.8125 -27.109375 C 50.09375 -22.671875 43.257812 -20.453125 34.3125 -20.453125 L 24.234375 -20.453125 L 24.234375 -3.046875 C 24.234375 -1.859375 23.96875 -1.050781 23.4375 -0.625 C 22.914062 -0.207031 22.164062 0 21.1875 0 L 10.8125 0 C 9.894531 0 9.15625 -0.207031 8.59375 -0.625 C 8.039062 -1.050781 7.765625 -1.859375 7.765625 -3.046875 L 7.765625 -66 C 7.765625 -66.976562 7.972656 -67.726562 8.390625 -68.25 C 8.804688 -68.769531 9.613281 -69.03125 10.8125 -69.03125 Z M 34.3125 -34.625 C 38.4375 -34.625 41.425781 -35.601562 43.28125 -37.5625 C 45.132812 -39.519531 46.0625 -41.789062 46.0625 -44.375 C 46.0625 -47.101562 45.132812 -49.429688 43.28125 -51.359375 C 41.425781 -53.285156 38.4375 -54.25 34.3125 -54.25 L 24.234375 -54.25 L 24.234375 -34.625 Z M 34.3125 -34.625 "/></g></g></g><g fill="#154273" fill-opacity="1"><g transform="translate(138.299963, 96.167089)"><g><path d="M 61.0625 -69.03125 C 62.039062 -69.03125 62.789062 -68.820312 63.3125 -68.40625 C 63.84375 -67.988281 64.109375 -67.1875 64.109375 -66 L 64.109375 -3.046875 C 64.109375 -1.859375 63.84375 -1.050781 63.3125 -0.625 C 62.789062 -0.207031 62.039062 0 61.0625 0 L 50.671875 0 C 49.765625 0 49.03125 -0.207031 48.46875 -0.625 C 47.914062 -1.050781 47.640625 -1.859375 47.640625 -3.046875 L 47.640625 -26.75 L 24.234375 -26.75 L 24.234375 -3.046875 C 24.234375 -1.859375 23.96875 -1.050781 23.4375 -0.625 C 22.914062 -0.207031 22.164062 0 21.1875 0 L 10.8125 0 C 9.894531 0 9.15625 -0.207031 8.59375 -0.625 C 8.039062 -1.050781 7.765625 -1.859375 7.765625 -3.046875 L 7.765625 -66 C 7.765625 -67.1875 8.039062 -67.988281 8.59375 -68.40625 C 9.15625 -68.820312 9.894531 -69.03125 10.8125 -69.03125 L 21.1875 -69.03125 C 22.164062 -69.03125 22.914062 -68.820312 23.4375 -68.40625 C 23.96875 -67.988281 24.234375 -67.1875 24.234375 -66 L 24.234375 -42.28125 L 47.640625 -42.28125 L 47.640625 -66 C 47.640625 -67.1875 47.914062 -67.988281 48.46875 -68.40625 C 49.03125 -68.820312 49.765625 -69.03125 50.671875 -69.03125 Z M 61.0625 -69.03125 "/></g></g></g></g></g></svg>